<?xml version="1.0" encoding="UTF-8"?>
<svg version="1.1" xmlns="http://www.w3.org/2000/svg" width="512" height="512">
<path d="M0 0 C0.66064808 5.49808191 1.31568234 10.99679794 1.96511841 16.49621582 C2.19631138 18.45372953 2.42814109 20.41116815 2.66061401 22.36853027 C3.86654331 32.55390216 5.03437458 42.73283614 5.859375 52.95703125 C5.92162766 53.71499496 5.98388031 54.47295868 6.04801941 55.25389099 C6.33432509 58.77800373 6.60016919 62.30193832 6.83520508 65.82983398 C7.36832637 72.69039155 7.96027931 77.38398177 12 83 C12.63679687 84.01320313 13.27359375 85.02640625 13.9296875 86.0703125 C14.57164062 87.07835937 15.21359375 88.08640625 15.875 89.125 C30.93534043 113.41519268 37.14064222 142.47974022 31.1015625 170.64453125 C26.3900827 190.23365712 17.82402171 206.55670899 5 222 C4.21882812 222.94746094 3.43765625 223.89492188 2.6328125 224.87109375 C-9.62608927 239.03916875 -25.23072561 248.90318694 -42 256.9375 C-42.81364014 257.32760254 -43.62728027 257.71770508 -44.46557617 258.11962891 C-48.28264957 259.90090335 -51.77607357 261.46349322 -56 262 C-55.8453125 263.36125 -55.8453125 263.36125 -55.6875 264.75 C-55.76422081 274.24420053 -61.31018462 282.27426702 -67.6953125 288.81640625 C-68.45585937 289.53699219 -69.21640625 290.25757813 -70 291 C-70.61617187 291.58652344 -71.23234375 292.17304688 -71.8671875 292.77734375 C-83.16333784 302.30392548 -98.81941527 303.95912319 -113 303 C-126.80274784 300.96405462 -138.07343753 294.58893747 -146.85546875 283.69921875 C-151.68334438 276.79714471 -154.52991251 270.47860021 -154 262 C-154.90443848 261.76325562 -154.90443848 261.76325562 -155.82714844 261.52172852 C-162.40548753 259.68940865 -168.235676 257.14959369 -174.25 253.9375 C-175.16458984 253.45144287 -176.07917969 252.96538574 -177.02148438 252.46459961 C-204.91946349 237.34992215 -228.51669033 212.83885434 -238 182 C-247.18498647 150.01797162 -243.16085704 120.21761707 -227.37890625 91.0078125 C-225.82307649 88.21401092 -224.11053403 86.00306964 -221.98144531 83.63110352 C-217.72670509 77.9831485 -217.54789045 71.7540547 -216.91796875 64.89453125 C-216.77416449 63.52440366 -216.62815093 62.15450636 -216.48005676 60.78483582 C-216.09788455 57.19326276 -215.74644865 53.59932829 -215.40136719 50.00402832 C-215.04798082 46.38282658 -214.66388127 42.76489923 -214.28320312 39.14648438 C-213.11640799 27.94852668 -211.9986289 16.7560955 -211.26655579 5.51982117 C-211 3 -211 3 -210 1 C-205.32104699 2.47251966 -202.14622502 5.22149193 -198.5625 8.4375 C-193.23730616 13.11388199 -187.84958403 17.65409307 -182.15991211 21.8840332 C-179.1151035 24.17932455 -176.5229733 26.4468997 -174.07421875 29.37890625 C-171.1179969 32.74691056 -168.43621201 35.77861198 -164 37 C-156.62973287 36.54138162 -149.66162728 33.57478895 -142.8125 31.00195312 C-137.03088367 28.94225231 -131.05105232 27.95865848 -125 27 C-123.79923828 26.80470703 -123.79923828 26.80470703 -122.57421875 26.60546875 C-100.20136711 23.70743097 -78.12490338 27.4128986 -56.66015625 33.59765625 C-55.84595215 33.82936523 -55.03174805 34.06107422 -54.19287109 34.29980469 C-52 35 -52 35 -48.79296875 36.51953125 C-45.74936489 37.36906876 -45.74936489 37.36906876 -42.703125 34.8515625 C-41.53426251 33.79543635 -40.38401249 32.71846132 -39.25 31.625 C-38.00242324 30.48835153 -36.75372233 29.35293573 -35.50390625 28.21875 C-34.90078613 27.66058594 -34.29766602 27.10242188 -33.67626953 26.52734375 C-31.58842697 24.62499259 -29.4119376 22.86486886 -27.1875 21.125 C-21.68426109 16.77937061 -16.2878045 12.30677836 -10.88745117 7.83447266 C-10.18467041 7.25358887 -9.48188965 6.67270508 -8.7578125 6.07421875 C-8.1302002 5.55432373 -7.50258789 5.03442871 -6.85595703 4.4987793 C-1.28506271 0 -1.28506271 0 0 0 Z " fill="#D8BA6D" transform="translate(288,206)"/>
<path d="M0 0 C0.66 0 1.32 0 2 0 C6.93203529 14.41833295 11.61579935 28.84253624 14.54931641 43.81689453 C15.0884824 46.42860759 15.69212492 49.02288504 16.29296875 51.62109375 C21.08563813 72.9389945 23.41546129 93.07120398 13 113 C12.34 113.99 11.68 114.98 11 116 C11.99 115.34 12.98 114.68 14 114 C16.92578125 113.734375 16.92578125 113.734375 20.3125 113.75 C21.97732422 113.74226563 21.97732422 113.74226563 23.67578125 113.734375 C27.0796616 114.00636544 29.82011732 114.78769979 33 116 C33.14661601 98.42702399 28.46337782 82.94469628 23.203125 66.3125 C22.92621826 65.42361084 22.64931152 64.53472168 22.36401367 63.61889648 C21.85043232 61.98084887 21.32315371 60.34699547 20.77856445 58.71899414 C18.86730095 52.69035668 17.35826183 45.69814419 20.01782227 39.70727539 C20.34194092 39.14387451 20.66605957 38.58047363 21 38 C21.33 38 21.66 38 22 38 C22.09796875 38.96679688 22.1959375 39.93359375 22.296875 40.9296875 C23.59165756 52.20322528 26.38858429 60.59324223 32.4140625 70.2890625 C44.17386372 90.39079168 46.48997287 116.69660463 41.875 139.5 C39.13400479 148.90862542 34.09203565 156.43478444 26 162 C18.39694519 165.75918107 10.39109016 167.38916935 2.12304688 168.97851562 C-4.31514588 170.32037054 -9.44332076 172.47965659 -15 176 C-12.279005 167.35224002 -3.23682833 160.5821253 3.95703125 155.46484375 C6.4510633 153.67657985 8.84854792 151.78564436 11.25 149.875 C12.05953125 149.23304688 12.8690625 148.59109375 13.703125 147.9296875 C16.05048078 146.02446206 16.05048078 146.02446206 18.171875 143.7578125 C20 142 20 142 22 142 C22.268125 141.27554688 22.53625 140.55109375 22.8125 139.8046875 C23.98865702 137.02679033 25.37796138 134.66349044 27 132.125 C29.47287315 128.09602619 30.99876855 124.60566468 32 120 C29.36 120.33 26.72 120.66 24 121 C24.33 121.66 24.66 122.32 25 123 C25.3506291 128.34709374 25.44403637 131.62872307 22 136 C18.79091256 137.60454372 15.48131162 137.48018091 12 137 C8.61813624 135.0572272 7.29735409 134.00642921 6.1875 130.25 C6.125625 129.5075 6.06375 128.765 6 128 C5.34 128 4.68 128 4 128 C3.34 129.65 2.68 131.3 2 133 C0.95550089 129.86650268 1.06576355 129.01031744 2 126 C-1.31474412 129.26483484 -4.62250124 132.53654337 -7.92431641 135.81445312 C-9.04552672 136.92568425 -10.1685351 138.0351045 -11.29345703 139.14257812 C-17.36814391 145.12546973 -23.13009365 150.95999503 -28 158 C-30.66085336 156.66957332 -30.76397378 155.51956535 -31.8046875 152.765625 C-32.13911865 151.88696777 -32.4735498 151.00831055 -32.81811523 150.10302734 C-33.16688721 149.16152832 -33.51565918 148.2200293 -33.875 147.25 C-34.23215088 146.29947754 -34.58930176 145.34895508 -34.95727539 144.36962891 C-37.58029587 137.3162592 -39.91535025 130.23149686 -42 123 C-42.33 122.01 -42.66 121.02 -43 120 C-49.93 119.505 -49.93 119.505 -57 119 C-57.4125 120.258125 -57.825 121.51625 -58.25 122.8125 C-59.41484834 126.31798257 -60.65110501 129.78741111 -61.9375 133.25 C-63.84391217 138.42350783 -65.44001517 143.66185498 -66.97265625 148.95703125 C-68.04989487 152.14778746 -69.43005044 155.0246565 -71 158 C-73.85676567 155.22980299 -76.54066393 152.40147549 -79.125 149.375 C-83.80060423 143.97139599 -88.91703977 139.01548731 -94 134 C-94.87398437 133.10667969 -95.74796875 132.21335937 -96.6484375 131.29296875 C-98.97477467 128.88412237 -98.97477467 128.88412237 -102 127 C-101.34 128.98 -100.68 130.96 -100 133 C-101.32 131.68 -102.64 130.36 -104 129 C-104.86625 130.3921875 -104.86625 130.3921875 -105.75 131.8125 C-108.5132592 135.7271172 -110.07721881 137.61544376 -114.8125 138.5625 C-119.37462326 137.75741942 -122.26375267 135.74558352 -125 132 C-125.74464925 128.9816126 -125.46834563 127.17434261 -125 124 C-124.34 123.01 -123.68 122.02 -123 121 C-125.97 121 -128.94 121 -132 121 C-125.87427797 137.93581972 -116.31771381 147.20122457 -101.93359375 157.76953125 C-95.61171148 162.57618208 -89.84852916 167.69691209 -85 174 C-85.33 174.66 -85.66 175.32 -86 176 C-86.50789063 175.66226563 -87.01578125 175.32453125 -87.5390625 174.9765625 C-88.22742188 174.53054688 -88.91578125 174.08453125 -89.625 173.625 C-90.63433594 172.96371094 -90.63433594 172.96371094 -91.6640625 172.2890625 C-98.07451365 168.75152257 -105.35616662 167.9041092 -112.48046875 166.67578125 C-123.52163344 164.61498723 -130.12720918 160.36094987 -136.5625 151.0625 C-147.29108036 133.37673979 -145.88928294 110.76625397 -141.54345703 91.14746094 C-139.36985766 82.55852112 -135.75145555 74.9634521 -130.875 67.5625 C-125.04301351 58.54132013 -123.40045535 48.52381007 -122 38 C-121.34 38.33 -120.68 38.66 -120 39 C-119.24384583 50.18828115 -120.45788944 58.72909213 -124.55078125 69.15625 C-126.07272881 73.04367961 -126.83458046 76.81517566 -127.4375 80.94140625 C-128.05625734 84.3058993 -128.94415534 87.53356831 -129.86621094 90.82543945 C-132.33582615 99.6466071 -133.83482133 107.79504337 -134 117 C-133.46632813 116.7834375 -132.93265625 116.566875 -132.3828125 116.34375 C-125.64316277 113.82512657 -118.9609143 112.67969523 -112 115 C-112.5775 114.154375 -113.155 113.30875 -113.75 112.4375 C-125.15479807 92.11252057 -120.64487277 63.29741379 -115.15576172 41.67431641 C-113.58538023 36.38997847 -111.72250166 31.24392567 -109.74658203 26.10009766 C-108.79275304 23.41702474 -108.14136149 20.70478893 -107.49169922 17.93530273 C-106.67108586 14.70541094 -105.5186949 11.63011235 -104.375 8.5 C-103.70597656 6.65921875 -103.70597656 6.65921875 -103.0234375 4.78125 C-102.68570313 3.8634375 -102.34796875 2.945625 -102 2 C-100 4 -100 4 -99.75708008 6.21484375 C-99.76118896 7.11332031 -99.76529785 8.01179688 -99.76953125 8.9375 C-99.77146484 9.91460937 -99.77339844 10.89171875 -99.77539062 11.8984375 C-99.79375977 13.43371094 -99.79375977 13.43371094 -99.8125 15 C-99.81314453 16.02351563 -99.81378906 17.04703125 -99.81445312 18.1015625 C-99.85967749 25.71935497 -99.85967749 25.71935497 -101 28 C-100.01 27.67 -99.02 27.34 -98 27 C-96.33209014 26.92946036 -94.6614467 26.91575463 -92.9921875 26.9375 C-91.51105469 26.94910156 -91.51105469 26.94910156 -90 26.9609375 C-87.94010048 26.98668624 -85.88020452 27.01272117 -83.8203125 27.0390625 C-73.15245701 27.12197329 -64.54872537 27.13418808 -56 20 C-53.10543474 16.09995418 -51.60229129 11.81833036 -51 7 C-50.34 7 -49.68 7 -49 7 C-48.82984375 7.66386719 -48.6596875 8.32773437 -48.484375 9.01171875 C-46.22621316 17.24479399 -46.22621316 17.24479399 -40.28125 23.1484375 C-31.60970179 28.00037519 -21.12710298 27.23540217 -11.4375 27.5625 C-9.63829102 27.62727539 -9.63829102 27.62727539 -7.80273438 27.69335938 C-4.86858207 27.79856802 -1.9343575 27.90070883 1 28 C0.85780029 27.43442383 0.71560059 26.86884766 0.5690918 26.28613281 C-0.60792371 21.35947482 -1.2503305 16.84498201 -1.1875 11.75 C-1.17783203 10.00976562 -1.17783203 10.00976562 -1.16796875 8.234375 C-1.01948482 5.37519611 -0.65347637 2.78119543 0 0 Z " fill="#7E8183" transform="translate(233,252)"/>
<path d="M0 0 C15.49185528 5.48320689 27.62595949 21.89775432 38 34 C38.93869159 35.0821271 39.87748836 36.16416298 40.81640625 37.24609375 C46.38751983 43.70874614 51.88323589 50.23016912 57.3125 56.8125 C57.90869141 57.534375 58.50488281 58.25625 59.11914062 59 C62.71593155 63.37589379 66.20281658 67.80509493 69.47265625 72.43359375 C71.42086898 74.43163289 73.38045049 75.12092689 76 76 C76.309375 74.88625 76.61875 73.7725 76.9375 72.625 C78 69 78 69 79 67 C78.67 66.46375 78.34 65.9275 78 65.375 C76.46978233 61.74073303 77.35754208 58.8547475 78 55 C78.33 55 78.66 55 79 55 C79.99 59.455 79.99 59.455 81 64 C81.28875 62.72125 81.5775 61.4425 81.875 60.125 C82.54102483 57.17546145 82.80202597 56.19797403 85 54 C88.625 54.375 88.625 54.375 92 55 C91.67 56.32 91.34 57.64 91 59 C89.0625 58.625 89.0625 58.625 87 58 C86.67 57.34 86.34 56.68 86 56 C83.54619864 59.68070204 83.18347619 62.72574782 84 67 C86.40093293 70.22410993 87.94250118 71.69450034 91.8125 72.8125 C92.8953125 72.9053125 92.8953125 72.9053125 94 73 C93.67 73.66 93.34 74.32 93 75 C95.64 75.33 98.28 75.66 101 76 C101 76.33 101 76.66 101 77 C96.015638 77.70584647 91.95804931 78.05170743 87 77 C86.34 77.66 85.68 78.32 85 79 C82.375 79.125 82.375 79.125 80 79 C82.25744356 84.68541342 85.28241729 87.1289492 90.125 90.5 C91.57161294 91.54458235 93.01553239 92.59290283 94.45703125 93.64453125 C95.2042041 94.18932129 95.95137695 94.73411133 96.72119141 95.29541016 C100.5195031 98.13661567 104.16631939 101.15495991 107.8125 104.1875 C108.52978271 104.78353027 109.24706543 105.37956055 109.98608398 105.99365234 C111.36803286 107.14354864 112.74932826 108.29423085 114.12988281 109.44580078 C116.6326996 111.52581797 119.15976203 113.57538255 121.6875 115.625 C155.81996416 143.61258786 155.81996416 143.61258786 160 156 C160.40832011 161.34163035 159.49247328 163.86417638 156 168 C148.43774146 172.6050117 139.7815967 172.08811976 131.34375 170.16796875 C127.09350674 168.86657546 122.94875184 167.35939321 118.79296875 165.78515625 C115.96160303 164.65137973 115.96160303 164.65137973 113.375 166.3125 C112.59125 166.869375 111.8075 167.42625 111 168 C101.86437081 170.97254746 92.41887057 169.06340661 84 165 C76.49496865 161.04347606 68.8493341 154.6986682 65 147 C63.48168042 146.22338826 61.93448924 145.50272711 60.375 144.8125 C52.24412267 140.83998565 47.3120812 135.397931 44 127 C43.32037932 125.00436472 42.6512891 123.00506034 42 121 C41.5560791 121.36351563 41.1121582 121.72703125 40.65478516 122.1015625 C38.6489227 123.73942978 36.63707827 125.369776 34.625 127 C33.92632812 127.57234375 33.22765625 128.1446875 32.5078125 128.734375 C31.50234375 129.54648437 31.50234375 129.54648437 30.4765625 130.375 C29.85861816 130.87773437 29.24067383 131.38046875 28.60400391 131.8984375 C27 133 27 133 25 133 C25.47887665 128.23735403 27.49488642 125.77358348 30.5625 122.1875 C31.38878906 121.21167969 32.21507812 120.23585938 33.06640625 119.23046875 C34.02353516 118.12638672 34.02353516 118.12638672 35 117 C34.0821875 116.59910156 33.164375 116.19820313 32.21875 115.78515625 C23.05762781 111.61091008 15.40512293 107.16966317 11.5625 97.3125 C9.57633233 93.10182453 7.21802992 91.96571971 3.34375 89.58203125 C-4.74720676 84.12063544 -9.70185427 75.12103696 -12.3125 65.875 C-13.73358451 57.86525093 -12.84645928 52.4774863 -10 45 C-8.62297944 40.86893833 -9.97983982 39.40958783 -11.875 35.5625 C-14.74645317 29.69271549 -16.14011345 25.76953021 -16.0625 19.25 C-16.05347656 18.26515625 -16.04445313 17.2803125 -16.03515625 16.265625 C-16.02355469 15.51796875 -16.01195312 14.7703125 -16 14 C-16.99 13.67 -17.98 13.34 -19 13 C-18.01 12.67 -17.02 12.34 -16 12 C-15.9071875 10.948125 -15.9071875 10.948125 -15.8125 9.875 C-14.69528762 5.92178696 -12.79812617 4.00286711 -10 1 C-6.62553024 -0.68723488 -3.62392796 -0.63404197 0 0 Z " fill="#858685" transform="translate(297,4)"/>
<path d="M0 0 C0.99 0 1.98 0 3 0 C2.06112825 14.39603342 -9.03389399 24.90722333 -17.89453125 35.33203125 C-39.81255784 60.14944542 -39.81255784 60.14944542 -50 91 C-50.17402344 92.04414063 -50.34804687 93.08828125 -50.52734375 94.1640625 C-53.12338817 115.23278668 -51.20518581 134.76023708 -38.375 152.125 C-24.87226801 168.21064095 -7.09940095 171.65730818 12.5703125 174.51953125 C13.61960937 174.67808594 14.66890625 174.83664062 15.75 175 C17.10351562 175.185625 17.10351562 175.185625 18.484375 175.375 C21.39550948 176.09826322 23.51015104 177.35204241 26 179 C25 182 25 182 22.8125 183.31640625 C8.01533736 189.87237137 -3.63650219 190.6313204 -19 185 C-19.79277344 184.72285156 -20.58554688 184.44570313 -21.40234375 184.16015625 C-31.72408946 180.10985097 -40.71136353 172.21576244 -48 164 C-48.81339844 163.113125 -49.62679687 162.22625 -50.46484375 161.3125 C-65.43880109 144.06548295 -67.280004 121.90951011 -66 100 C-64.92882529 91.20256509 -62.56305957 83.09434185 -59 75 C-58.5832102 73.65213589 -58.18418779 72.29849213 -57.8125 70.9375 C-51.05410634 50.76471892 -33.59315689 34.79166447 -17.30859375 21.86328125 C-10.32370482 16.2257313 -4.00659096 8.01318192 0 0 Z " fill="#7F8183" transform="translate(121,255)"/>
<path d="M0 0 C3.65721606 1.21907202 3.67883276 1.87619261 5.375 5.1875 C11.49049236 15.77959347 20.71029786 24.23326722 30.23828125 31.73046875 C38.78255988 38.75200465 46.10868612 46.62261149 52 56 C52.50917969 56.7528125 53.01835937 57.505625 53.54296875 58.28125 C58.33180429 65.66762872 61.20377441 73.70453075 64 82 C64.49886719 83.47533203 64.49886719 83.47533203 65.0078125 84.98046875 C68.34265945 95.94013566 68.32572942 107.62908202 68 119 C67.97164063 120.0725 67.94328125 121.145 67.9140625 122.25 C66.97233956 141.26383462 56.58841614 158.1388512 43 171 C39.77252572 173.8275279 36.48170753 176.49271471 33 179 C32.07960938 179.67675781 31.15921875 180.35351562 30.2109375 181.05078125 C26.53520324 183.28215764 23.04112515 184.49587776 18.9375 185.6875 C18.24333984 185.89955078 17.54917969 186.11160156 16.83398438 186.33007812 C2.65557408 190.59841247 -8.44965743 189.31807041 -21.75 182.75 C-22.8225 182.1725 -23.895 181.595 -25 181 C-19.23068905 174.35655103 -12.77357951 173.85132928 -4.5 173.1875 C4.24249377 172.34878335 11.84077931 170.25771082 20 167 C20.77730469 166.69191406 21.55460937 166.38382813 22.35546875 166.06640625 C34.43813473 160.64005925 43.8955328 150.30961429 48.63671875 138.00390625 C55.71361153 117.95956984 56.15720592 91.93883622 47.421875 72.1953125 C44.01410139 65.54861892 39.76816515 59.72179818 35 54 C33.76986444 52.43826268 32.5407468 50.87572319 31.3125 49.3125 C27.96257808 45.12997612 24.49751797 41.05862585 21 37 C19.46486548 35.20900973 17.93066529 33.4172251 16.39697266 31.625 C15.1728257 30.20103597 13.93696187 28.78716193 12.69921875 27.375 C6.38297541 19.91815349 -0.73707449 10.13477419 0 0 Z " fill="#7F8183" transform="translate(243,255)"/>
<path d="M0 0 C4.62 0 9.24 0 14 0 C17.13619623 7.23067464 19.80122677 14.35997164 22.03515625 21.9140625 C22.90123786 24.6841211 23.88638532 27.32212502 25 30 C27.04037624 34.90814916 28.56833616 39.92398342 30.0703125 45.01953125 C30.93911643 47.97650345 30.93911643 47.97650345 32.1171875 50.63671875 C33 53 33 53 33 57 C15.84 57 -1.32 57 -19 57 C-17.87599642 48.00797135 -17.87599642 48.00797135 -16.07421875 43.42578125 C-15.69168945 42.43481445 -15.30916016 41.44384766 -14.91503906 40.42285156 C-14.50995117 39.39643555 -14.10486328 38.37001953 -13.6875 37.3125 C-10.8166288 29.87341403 -8.13203975 22.50396081 -5.90625 14.84765625 C-4.2847807 9.75260833 -2.12624345 4.90217241 0 0 Z " fill="#F6EEDA" transform="translate(176,371)"/>
<path d="M0 0 C1.69648682 -0.0009668 1.69648682 -0.0009668 3.42724609 -0.00195312 C11.48878356 0.04897403 19.20726157 0.57516054 27.125 2.1875 C26.70927734 2.98414063 26.70927734 2.98414063 26.28515625 3.796875 C25.92292969 4.50328125 25.56070313 5.2096875 25.1875 5.9375 C24.82785156 6.63359375 24.46820313 7.3296875 24.09765625 8.046875 C23.16941818 10.08974433 22.59333422 11.99865376 22.125 14.1875 C21.465 14.1875 20.805 14.1875 20.125 14.1875 C19.88910156 14.78304688 19.65320313 15.37859375 19.41015625 15.9921875 C17.84318515 18.66889802 16.13303041 19.60431446 13.5625 21.3125 C10.1090075 24.2014793 8.85527001 26.33128343 8.3125 30.7109375 C7.99616936 35.20897237 8.00465331 39.68171979 8.125 44.1875 C9.115 44.5175 10.105 44.8475 11.125 45.1875 C12.73046875 46.96484375 12.73046875 46.96484375 14.3125 49.125 C14.84230469 49.83527344 15.37210938 50.54554688 15.91796875 51.27734375 C17.125 53.1875 17.125 53.1875 17.125 55.1875 C20.50094805 55.10609225 23.87515913 54.99329799 27.25 54.875 C28.67699219 54.84116211 28.67699219 54.84116211 30.1328125 54.80664062 C35.60683207 54.59756349 39.27538223 53.95317659 44.125 51.1875 C44.785 51.5175 45.445 51.8475 46.125 52.1875 C42.61319287 56.768118 38.57790692 57.4529115 33.125 58.1875 C29.5625 58.3125 29.5625 58.3125 27.125 58.1875 C27.125 58.8475 27.125 59.5075 27.125 60.1875 C26.28195313 60.32027344 25.43890625 60.45304687 24.5703125 60.58984375 C23.47460938 60.76644531 22.37890625 60.94304687 21.25 61.125 C20.15945312 61.29902344 19.06890625 61.47304688 17.9453125 61.65234375 C15.18678454 62.04301159 15.18678454 62.04301159 13.125 63.1875 C-2.00302458 65.30285937 -15.36783759 62.29149989 -29.875 58.1875 C-30.9475 57.91679687 -32.02 57.64609375 -33.125 57.3671875 C-34.094375 57.12226563 -35.06375 56.87734375 -36.0625 56.625 C-36.90167969 56.41746094 -37.74085938 56.20992188 -38.60546875 55.99609375 C-41.14795979 55.09024927 -42.87537127 53.99406112 -44.875 52.1875 C-44.875 51.5275 -44.875 50.8675 -44.875 50.1875 C-39.875 52.1875 -39.875 52.1875 -37.84375 53.21875 C-33.46502946 54.64759565 -29.14227584 54.65714365 -24.5625 54.8125 C-23.63115234 54.85117187 -22.69980469 54.88984375 -21.74023438 54.9296875 C-19.45201593 55.02356313 -17.16379705 55.10924509 -14.875 55.1875 C-14.41770508 54.25695801 -14.41770508 54.25695801 -13.95117188 53.30761719 C-12.89103245 51.2190848 -11.7183306 49.35420341 -10.375 47.4375 C-9.9521875 46.82390625 -9.529375 46.2103125 -9.09375 45.578125 C-8.6915625 45.11921875 -8.289375 44.6603125 -7.875 44.1875 C-7.215 44.1875 -6.555 44.1875 -5.875 44.1875 C-4.9865347 33.14872702 -4.9865347 33.14872702 -9.14453125 23.48046875 C-11.06606585 22.10569092 -13.01800266 20.7725465 -14.99609375 19.48046875 C-20.20387677 15.33261443 -22.49398813 9.30661925 -24.875 3.1875 C-24.875 2.5275 -24.875 1.8675 -24.875 1.1875 C-16.57044702 0.37645746 -8.34315963 -0.00496395 0 0 Z " fill="#7F8183" transform="translate(181.875,427.8125)"/>
<path d="M0 0 C2.375 0.1875 2.375 0.1875 5 1 C6.1875 3.5 6.1875 3.5 7 6 C10.87395546 7.93697773 16.049352 6.98508798 20.34765625 6.87304688 C21.13785156 6.86208984 21.92804688 6.85113281 22.7421875 6.83984375 C23.4626123 6.82300537 24.18303711 6.80616699 24.92529297 6.78881836 C27.36281742 7.0369307 28.92499382 7.71207485 31 9 C32.63526591 12.27053182 32.80733956 15.49040818 32 19 C30.68359375 20.3671875 30.68359375 20.3671875 28.9375 21.625 C20.24079375 28.11665903 16.94893244 40.86555134 15 51 C14.67 51 14.34 51 14 51 C13.72285156 50.09636719 13.44570312 49.19273437 13.16015625 48.26171875 C12.79792969 47.08222656 12.43570313 45.90273438 12.0625 44.6875 C11.70285156 43.51574219 11.34320313 42.34398437 10.97265625 41.13671875 C10.33627721 39.08446023 9.67946621 37.03839863 9 35 C2.07 34.505 2.07 34.505 -5 34 C-5.433125 35.340625 -5.86625 36.68125 -6.3125 38.0625 C-7.67148964 42.15241169 -9.24248654 46.06651749 -11 50 C-11.33 50 -11.66 50 -12 50 C-12.07476562 49.26136719 -12.14953125 48.52273438 -12.2265625 47.76171875 C-13.50567582 37.8924817 -17.11642545 29.34247952 -24 22 C-24.7425 21.566875 -25.485 21.13375 -26.25 20.6875 C-28 19 -28 19 -28.5 15.0625 C-28.54279938 12.28588996 -28.06572709 11.10331088 -26.55859375 8.734375 C-22.14562374 5.7429877 -17.13120025 6.9546932 -11.99804688 7.41992188 C-9.49666484 7.543326 -7.4381357 7.58759014 -5 7 C-2.64419108 4.83641971 -1.55904251 2.85877815 0 0 Z " fill="#D7B96A" transform="translate(181,337)"/>
<path d="M0 0 C0.5775 0.495 1.155 0.99 1.75 1.5 C4.10400629 3.36980013 4.10400629 3.36980013 8 3 C14.70111017 7.32943178 20.46657218 13.28252306 26.125 18.875 C26.97759399 19.71357544 26.97759399 19.71357544 27.84741211 20.5690918 C30.2751242 23.01609205 31.89535934 24.68607801 33 28 C32.01 28 31.02 28 30 28 C30 29.98 30 31.96 30 34 C28.02 34.495 28.02 34.495 26 35 C25.67 34.01 25.34 33.02 25 32 C24.34 32 23.68 32 23 32 C21.65893555 30.41113281 21.65893555 30.41113281 20.13671875 28.203125 C19.57919922 27.4090625 19.02167969 26.615 18.44726562 25.796875 C17.28518271 24.11501471 16.12371217 22.43273113 14.96289062 20.75 C11.96424333 16.48097286 9.26862548 13.09475347 5 10 C3.94895617 8.36504293 2.94011682 6.70116376 2 5 C1.34 4.34 0.68 3.68 0 3 C0 2.01 0 1.02 0 0 Z " fill="#8D8A7E" transform="translate(381,98)"/>
<path d="M0 0 C3.51740547 0.58989668 5.28398756 1.85715736 7.86328125 4.28125 C8.58580078 4.95929687 9.30832031 5.63734375 10.05273438 6.3359375 C10.79845703 7.05007812 11.54417969 7.76421875 12.3125 8.5 C13.04662109 9.18320312 13.78074219 9.86640625 14.53710938 10.5703125 C19.57344374 15.34298783 23.89583753 20.40898799 28 26 C27.01 26.495 27.01 26.495 26 27 C27.32 28.65 28.64 30.3 30 32 C25.02327252 31.28903893 21.38913487 29.85217982 18.3125 25.75 C15.51325638 22.42116974 12.40260215 20.34049013 8.81640625 17.9140625 C5.78939677 15.85687159 2.83050997 13.72097567 -0.125 11.5625 C-1.05570312 10.88316406 -1.98640625 10.20382813 -2.9453125 9.50390625 C-3.62335938 9.00761719 -4.30140625 8.51132812 -5 8 C-4.67 6.68 -4.34 5.36 -4 4 C-1.69 4.33 0.62 4.66 3 5 C2.01 3.35 1.02 1.7 0 0 Z " fill="#89877F" transform="translate(328,44)"/>
<path d="M0 0 C0.66 0 1.32 0 2 0 C2.80374856 7.12210528 3.05996517 12.6039508 -1.5 18.4375 C-5.15924099 22.41465377 -9.15560792 26.49638561 -14 29 C-15.32 29 -16.64 29 -18 29 C-15.69284821 20.23282321 -10.14715183 12.99429497 -4.75 5.875 C-4.31365234 5.29419678 -3.87730469 4.71339355 -3.42773438 4.11499023 C-2.33515591 2.70317665 -1.17287303 1.34585071 0 0 Z " fill="#D0B46A" transform="translate(366,97)"/>
<path d="M0 0 C3.625 0.375 3.625 0.375 7 1 C6.67 2.32 6.34 3.64 6 5 C4.0625 4.625 4.0625 4.625 2 4 C1.67 3.34 1.34 2.68 1 2 C-1.45380136 5.68070204 -1.81652381 8.72574782 -1 13 C1.40093293 16.22410993 2.94250118 17.69450034 6.8125 18.8125 C7.534375 18.874375 8.25625 18.93625 9 19 C8.67 19.66 8.34 20.32 8 21 C10.64 21.33 13.28 21.66 16 22 C16 22.33 16 22.66 16 23 C11.015638 23.70584647 6.95804931 24.05170743 2 23 C1.34 23.66 0.68 24.32 0 25 C-1.66614608 25.04165365 -3.33385392 25.04165365 -5 25 C-5.66 25.33 -6.32 25.66 -7 26 C-7 25.34 -7 24.68 -7 24 C-7.969375 23.87625 -8.93875 23.7525 -9.9375 23.625 C-11.4534375 23.315625 -11.4534375 23.315625 -13 23 C-13.33 22.34 -13.66 21.68 -14 21 C-12.35 21.33 -10.7 21.66 -9 22 C-8.690625 20.88625 -8.38125 19.7725 -8.0625 18.625 C-7 15 -7 15 -6 13 C-6.495 12.195625 -6.495 12.195625 -7 11.375 C-8.53021767 7.74073303 -7.64245792 4.8547475 -7 1 C-6.67 1 -6.34 1 -6 1 C-5.34 3.97 -4.68 6.94 -4 10 C-3.71125 8.72125 -3.4225 7.4425 -3.125 6.125 C-2.45897517 3.17546145 -2.19797403 2.19797403 0 0 Z " fill="#979797" transform="translate(382,58)"/>
<path d="M0 0 C-6.40367094 8.63433357 -16.46602746 15.15704582 -26 20 C-26.66 20 -27.32 20 -28 20 C-27.6454659 12.90931791 -23.44471159 8.38202667 -18.5625 3.625 C-12.65395447 -0.12188253 -6.76472582 -0.27611126 0 0 Z " fill="#D4B769" transform="translate(359,90)"/>
<path d="M0 0 C2.4375 1.0625 2.4375 1.0625 4 3 C4.56988508 6.91795996 4.59460908 9.07240983 2.4375 12.4375 C-0.96719488 14.61999672 -3.03430012 14.63734462 -7 14 C-9.69500656 11.58140437 -10.80636871 9.99236035 -11.5 6.4375 C-10.18856814 0.04426967 -5.88813465 -0.73601683 0 0 Z " fill="#ACCFC9" transform="translate(252,373)"/>
<path d="M0 0 C2.4375 1 2.4375 1 4 3 C4.65289471 6.56124386 4.63208836 9.73582328 3 13 C-0.26205554 14.63102777 -3.43555389 14.51981506 -7 14 C-9 13 -9 13 -10 11 C-10.52265149 7.4161041 -10.66071832 4.24370507 -8.9375 1 C-5.85873258 -0.58904125 -3.39844421 -0.35773097 0 0 Z " fill="#ADCFCA" transform="translate(121,373)"/>
<path d="M0 0 C0.99 0.33 1.98 0.66 3 1 C3.85980135 3.65056003 4.53572039 6.16431382 5.125 8.875 C5.46018997 10.33090147 5.79610052 11.78663728 6.1328125 13.2421875 C6.41898437 14.48226562 6.70515625 15.72234375 7 17 C7.33 17.99 7.66 18.98 8 20 C8.12781786 22.67394964 8.04391871 25.32095857 8 28 C5.0471515 27.09896497 3.38766697 26.57761268 1.63671875 23.96875 C-1.52284455 15.75128496 -1.81442904 8.61853796 0 0 Z " fill="#CBB16C" transform="translate(371,98)"/>
<path d="M0 0 C3.66661393 2.7403787 6.36304059 5.54864473 9.125 9.1875 C13.12495265 14.19916597 17.4542028 18.11688095 22.51953125 22.02734375 C24.87693868 23.90213233 27.00748512 25.74058937 29 28 C29.25 30.75 29.25 30.75 29 33 C27.02 33.495 27.02 33.495 25 34 C25 33.34 25 32.68 25 32 C24.34 32 23.68 32 23 32 C21.65893555 30.41113281 21.65893555 30.41113281 20.13671875 28.203125 C19.57919922 27.4090625 19.02167969 26.615 18.44726562 25.796875 C17.28518271 24.11501471 16.12371217 22.43273113 14.96289062 20.75 C11.96424333 16.48097286 9.26862548 13.09475347 5 10 C3.94895617 8.36504293 2.94011682 6.70116376 2 5 C1.34 4.34 0.68 3.68 0 3 C0 2.01 0 1.02 0 0 Z " fill="#CCB16C" transform="translate(381,98)"/>
<path d="M0 0 C3.23162612 -0.36284925 4.58017586 -0.32043115 7.2109375 1.6875 C7.92507813 2.450625 8.63921875 3.21375 9.375 4 C10.16132813 4.82628906 10.94765625 5.65257812 11.7578125 6.50390625 C13.64853615 8.60873623 15.45395643 10.75276043 17.25 12.9375 C22.00828775 18.53216137 28.11111581 22.67853311 34 27 C31 28 31 28 27.5625 26.375 C25.1920935 24.93406825 23.9281676 23.90835176 22.1875 21.6875 C19.46646803 18.34451787 16.36949914 16.31809256 12.81640625 13.9140625 C9.78939677 11.85687159 6.83050997 9.72097567 3.875 7.5625 C2.94429688 6.88316406 2.01359375 6.20382813 1.0546875 5.50390625 C0.37664062 5.00761719 -0.30140625 4.51132812 -1 4 C-0.67 2.68 -0.34 1.36 0 0 Z " fill="#C9B06C" transform="translate(324,48)"/>
<path d="M0 0 C1.43739513 -0.02712066 2.87493863 -0.04645067 4.3125 -0.0625 C5.51326172 -0.07990234 5.51326172 -0.07990234 6.73828125 -0.09765625 C9 0 9 0 12 1 C14.73470417 1.26669716 17.46910508 1.4435922 20.2109375 1.62109375 C23.08506945 2.01155705 25.36331457 2.81588854 28 4 C28 4.66 28 5.32 28 6 C19.203692 7.63652242 8.83802826 8.98783616 1 4 C0.328125 1.890625 0.328125 1.890625 0 0 Z " fill="#CEB36B" transform="translate(331,80)"/>
<path d="M0 0 C1.65 0.33 3.3 0.66 5 1 C5.33 1.99 5.66 2.98 6 4 C5.34 4 4.68 4 4 4 C5.62366466 7.24732932 8.75387839 7.70155136 12 9 C12 9.66 12 10.32 12 11 C10.02 10.34 8.04 9.68 6 9 C6 9.66 6 10.32 6 11 C2.04 11 -1.92 11 -6 11 C-5.67 10.01 -5.34 9.02 -5 8 C-3.02 8 -1.04 8 1 8 C1 7.34 1 6.68 1 6 C-1.97 5.67 -4.94 5.34 -8 5 C-8 4.01 -8 3.02 -8 2 C-4.7 2.66 -1.4 3.32 2 4 C1.34 2.68 0.68 1.36 0 0 Z " fill="#A69977" transform="translate(296,20)"/>
<path d="M0 0 C5.1743319 4.25034406 7.80646006 10.52416687 8.75 17.0625 C8.87375 18.5165625 8.87375 18.5165625 9 20 C8.01 19.67 7.02 19.34 6 19 C5.6278958 17.67696283 5.29369827 16.34262065 5 15 C4.34 14.67 3.68 14.34 3 14 C3 14.99 3 15.98 3 17 C2.01 17 1.02 17 0 17 C-0.89377301 11.72673923 -1.19739453 8.94413769 1 4 C0.71260075 1.75759218 0.71260075 1.75759218 0 0 Z " fill="#A49877" transform="translate(428,147)"/>
<path d="M0 0 C3.57120581 0.58699987 5.3327799 1.91427739 7.93359375 4.38671875 C8.66513672 5.07830078 9.39667969 5.76988281 10.15039062 6.48242188 C10.90513672 7.21009766 11.65988281 7.93777344 12.4375 8.6875 C13.56381836 9.75000977 13.56381836 9.75000977 14.71289062 10.83398438 C18.75932291 14.68823782 22.63142008 18.5331157 26 23 C26 23.66 26 24.32 26 25 C24 25 24 25 21.75 22.9375 C19.7923433 20.91135386 17.98431844 18.79391163 16.1875 16.625 C13.37236213 13.2802099 10.22974299 10.53379828 6.90234375 7.7109375 C4.27983056 5.35229114 2.16758342 2.77721626 0 0 Z " fill="#BFA970" transform="translate(328,44)"/>
<path d="M0 0 C2.97 0 5.94 0 9 0 C8.53411505 5.70709064 7.06242216 9.15939723 4 14 C3.01 13.67 2.02 13.34 1 13 C1.01160156 12.31292969 1.02320313 11.62585938 1.03515625 10.91796875 C1.04417969 10.01691406 1.05320312 9.11585938 1.0625 8.1875 C1.07410156 7.29417969 1.08570313 6.40085937 1.09765625 5.48046875 C1.11009967 2.86586209 1.11009967 2.86586209 0 0 Z " fill="#CCB98A" transform="translate(256,372)"/>
<path d="M0 0 C0.66 0 1.32 0 2 0 C6.72841803 6.42748747 11.77196267 14.76573149 11 23 C10.01 22.67 9.02 22.34 8 22 C6.97265625 19.8125 6.97265625 19.8125 6.0625 17 C4.5256628 12.44882574 2.77732226 8.12253541 0.734375 3.77734375 C0 2 0 2 0 0 Z " fill="#CAB06C" transform="translate(381,107)"/>
<path d="M0 0 C5.95670941 -0.83393932 10.00991047 0.63105352 15.3125 3.3125 C16.22829834 3.77474976 16.22829834 3.77474976 17.16259766 4.24633789 C20.18822076 5.84126272 22.7688936 7.38227588 25 10 C18.89546742 9.48377778 14.08521586 7.51417404 8.5625 4.9375 C7.73556641 4.56044922 6.90863281 4.18339844 6.05664062 3.79492188 C4.03393021 2.87125642 2.01537743 1.93953046 0 1 C0 0.67 0 0.34 0 0 Z " fill="#C6AE6D" transform="translate(326,67)"/>
<path d="M0 0 C3.625 0.375 3.625 0.375 7 1 C6.67 2.32 6.34 3.64 6 5 C4.0625 4.625 4.0625 4.625 2 4 C1.67 3.34 1.34 2.68 1 2 C-1.13586678 5.20380017 -1.23132175 6.01939967 -1.125 9.6875 C-1.10695313 10.49574219 -1.08890625 11.30398437 -1.0703125 12.13671875 C-1.04710937 12.75160156 -1.02390625 13.36648437 -1 14 C-2.65 14.33 -4.3 14.66 -6 15 C-8.48063781 5.58997722 -8.48063781 5.58997722 -7 1 C-6.67 1 -6.34 1 -6 1 C-5.34 3.97 -4.68 6.94 -4 10 C-3.566875 8.081875 -3.566875 8.081875 -3.125 6.125 C-2.45897517 3.17546145 -2.19797403 2.19797403 0 0 Z " fill="#E5D3BD" transform="translate(382,58)"/>
<path d="M0 0 C1.20272819 2.40545638 1.10071472 3.94996953 1.0625 6.625 C1.05347656 7.44226563 1.04445313 8.25953125 1.03515625 9.1015625 C1.02355469 9.72804688 1.01195312 10.35453125 1 11 C0.01 11.495 0.01 11.495 -1 12 C-0.67 10.35 -0.34 8.7 0 7 C-0.86625 7.3403125 -0.86625 7.3403125 -1.75 7.6875 C-4 8 -4 8 -6.25 6.5625 C-6.8275 6.046875 -7.405 5.53125 -8 5 C-7.625 2.5625 -7.625 2.5625 -7 0 C-4.30234372 -1.34882814 -2.84835666 -0.80338265 0 0 Z " fill="#E8D8BA" transform="translate(415,65)"/>
<path d="M0 0 C7.38461538 -0.49230769 7.38461538 -0.49230769 10.5 2 C10.995 2.66 11.49 3.32 12 4 C10.515 6.475 10.515 6.475 9 9 C7.35 8.67 5.7 8.34 4 8 C2.875 3.25 2.875 3.25 4 1 C2.35 1.33 0.7 1.66 -1 2 C-0.67 1.34 -0.34 0.68 0 0 Z " fill="#E1C895" transform="translate(380,40)"/>
<path d="M0 0 C3.87293811 2.58195874 3.88235196 4.60923984 5 9 C6.87643761 10.87643761 9.49805701 10.17984987 11.9921875 10.23046875 C14.31674328 10.11831337 14.31674328 10.11831337 17 8 C16.6875 9.875 16.6875 9.875 16 12 C12.42529543 14.38313638 11.21446465 14.64837918 7 14 C4.11098109 12.42206196 1.93149849 10.67610515 0 8 C-0.59065749 5.08330197 -0.3628113 3.00615075 0 0 Z " fill="#939996" transform="translate(108,376)"/>
<path d="M0 0 C2.28364999 3.42547499 3.13400707 6.75656137 4.125 10.6875 C4.30675781 11.38939453 4.48851562 12.09128906 4.67578125 12.81445312 C5.12227079 14.54166268 5.5618166 16.27066456 6 18 C6.66 17.67 7.32 17.34 8 17 C8.696553 18.95513161 9.38199565 20.91422476 10.0625 22.875 C10.44535156 23.96554687 10.82820312 25.05609375 11.22265625 26.1796875 C12 29 12 29 11 31 C10.01 29.02 9.02 27.04 8 25 C7.34 26.32 6.68 27.64 6 29 C4.99256612 24.91846379 3.9953446 20.83449971 3 16.75 C2.71382812 15.59113281 2.42765625 14.43226563 2.1328125 13.23828125 C1.86210937 12.12324219 1.59140625 11.00820313 1.3125 9.859375 C1.06113281 8.83295898 0.80976563 7.80654297 0.55078125 6.74902344 C0 4 0 4 0 0 Z " fill="#BDAC80" transform="translate(245,287)"/>
<path d="M0 0 C8.12665138 3.71350295 15.15007625 11.39483446 21 18 C21.33 18.99 21.66 19.98 22 21 C18.54883098 19.5155686 16.31140759 17.55666933 13.671875 14.90234375 C12.87265625 14.10119141 12.0734375 13.30003906 11.25 12.47460938 C10.425 11.63736328 9.6 10.80011719 8.75 9.9375 C7.90953125 9.09638672 7.0690625 8.25527344 6.203125 7.38867188 C0 1.14023184 0 1.14023184 0 0 Z " fill="#C5AD6E" transform="translate(392,105)"/>
<path d="M0 0 C0.66 0 1.32 0 2 0 C5.41778487 4.24633878 6.56744475 7.59305933 7 13 C5.1875 12.875 5.1875 12.875 3 12 C0.33719307 7.91068936 -0.34568576 4.83960066 0 0 Z " fill="#C9AF6D" transform="translate(409,140)"/>
<path d="M0 0 C0.33 1.65 0.66 3.3 1 5 C0.01 5.66 -0.98 6.32 -2 7 C-2.99 6.34 -3.98 5.68 -5 5 C-5 3.68 -5 2.36 -5 1 C-7.64752004 3.57784846 -9.94432065 5.91648098 -12 9 C-11.67815583 6.10340247 -11.38591512 3.68102669 -9.9375 1.125 C-6.73943927 -0.73193849 -3.64481003 -0.17925295 0 0 Z " fill="#E4CFBE" transform="translate(388,50)"/>
<path d="M0 0 C0.66 0.33 1.32 0.66 2 1 C-0.67852163 4.82645947 -3.34810616 5.46819646 -7.75 6.25 C-9.49773637 6.51536311 -11.24721668 6.77032494 -13 7 C-13 6.34 -13 5.68 -13 5 C-17.62 5 -22.24 5 -27 5 C-27 4.67 -27 4.34 -27 4 C-26.39526855 3.98541748 -25.79053711 3.97083496 -25.16748047 3.95581055 C-22.40270735 3.88090812 -19.63908643 3.78438927 -16.875 3.6875 C-15.44800781 3.65366211 -15.44800781 3.65366211 -13.9921875 3.61914062 C-8.51816793 3.41006349 -4.84961777 2.76567659 0 0 Z " fill="#9B9588" transform="translate(226,479)"/>
<path d="M0 0 C1.65 0.33 3.3 0.66 5 1 C5.33 1.99 5.66 2.98 6 4 C5.34 4 4.68 4 4 4 C4 4.99 4 5.98 4 7 C-1.94 6.01 -1.94 6.01 -8 5 C-8 4.01 -8 3.02 -8 2 C-4.7 2.66 -1.4 3.32 2 4 C1.34 2.68 0.68 1.36 0 0 Z " fill="#C0AA6F" transform="translate(296,20)"/>
<path d="M0 0 C5 2 5 2 7.03125 3.03125 C11.40997054 4.46009565 15.73272416 4.46964365 20.3125 4.625 C21.24384766 4.66367187 22.17519531 4.70234375 23.13476562 4.7421875 C25.42298407 4.83606313 27.71120295 4.92174509 30 5 C30 5.33 30 5.66 30 6 C26.8141361 6.25748454 23.626706 6.47577773 20.4375 6.6875 C19.09461914 6.79674805 19.09461914 6.79674805 17.72460938 6.90820312 C10.3756902 7.36582813 6.17991637 6.11994425 0 2 C0 1.34 0 0.68 0 0 Z " fill="#9F9887" transform="translate(137,478)"/>
<path d="M0 0 C1.6286551 0.42369072 3.25287378 0.8644623 4.875 1.3125 C5.77992188 1.55613281 6.68484375 1.79976562 7.6171875 2.05078125 C10 3 10 3 12 6 C8.7 6 5.4 6 2 6 C1.67 5.01 1.34 4.02 1 3 C0.34 3 -0.32 3 -1 3 C-0.67 2.01 -0.34 1.02 0 0 Z " fill="#CDB26B" transform="translate(303,43)"/>
<path d="M0 0 C1.125 1.6875 1.125 1.6875 2 4 C1.00449408 7.80102261 0.34152484 8.77231678 -3 11 C-10.14893617 11.68085106 -10.14893617 11.68085106 -13.5 9 C-13.995 8.34 -14.49 7.68 -15 7 C-14.01 7 -13.02 7 -12 7 C-11.67 7.33 -11.34 7.66 -11 8 C-6.34203151 8.452835 -6.34203151 8.452835 -2.125 6.8125 C-0.73770965 4.5774211 -0.35012787 2.59094622 0 0 Z " fill="#888E8E" transform="translate(256,378)"/>
<path d="M0 0 C2 1.8125 2 1.8125 4 4 C4 4.99 4 5.98 4 7 C-2.4 10.07692308 -2.4 10.07692308 -5.4375 9.6875 C-5.953125 9.460625 -6.46875 9.23375 -7 9 C-6.21625 8.443125 -5.4325 7.88625 -4.625 7.3125 C-1.91295142 4.92331435 -1.03866457 3.39926587 0 0 Z " fill="#E8E0CC" transform="translate(128,380)"/>
<path d="M0 0 C0.66 0 1.32 0 2 0 C2.45375 0.928125 2.9075 1.85625 3.375 2.8125 C4.9421633 6.03921389 4.9421633 6.03921389 7 9 C0.25 8.25 0.25 8.25 -2 6 C-1.64644564 3.73725212 -1.02455574 2.04911148 0 0 Z " fill="#E5DECB" transform="translate(237,380)"/>
<path d="M0 0 C3.31234384 1.16379648 5.8898219 2.11238786 8 5 C8 6.32 8 7.64 8 9 C6.25 8.875 6.25 8.875 4 8 C0 2.77777778 0 2.77777778 0 0 Z " fill="#C4AC6E" transform="translate(415,129)"/>
<path d="M0 0 C-0.99 0.495 -0.99 0.495 -2 1 C-0.35 1.33 1.3 1.66 3 2 C3 2.33 3 2.66 3 3 C2.11248047 3.09087891 2.11248047 3.09087891 1.20703125 3.18359375 C-2.90978208 3.62012371 -6.95544533 4.08671346 -11 5 C-10.67 4.34 -10.34 3.68 -10 3 C-9.01 3 -8.02 3 -7 3 C-7 2.34 -7 1.68 -7 1 C-8.98 1 -10.96 1 -13 1 C-13 0.67 -13 0.34 -13 0 C-11.58456585 -0.19658808 -10.16755969 -0.38187546 -8.75 -0.5625 C-7.96109375 -0.66691406 -7.1721875 -0.77132812 -6.359375 -0.87890625 C-3.99467126 -1.00027349 -2.2488963 -0.69633257 0 0 Z " fill="#9A917B" transform="translate(356,87)"/>
<path d="M0 0 C2.31 0 4.62 0 7 0 C6.5359375 0.7734375 6.5359375 0.7734375 6.0625 1.5625 C4.70940713 4.66665423 4.38640576 7.65115007 4 11 C1.6870518 8.6870518 1.50419025 7.52095125 0.875 4.375 C0.70742187 3.55773437 0.53984375 2.74046875 0.3671875 1.8984375 C0.24601562 1.27195312 0.12484375 0.64546875 0 0 Z " fill="#E8DFCB" transform="translate(104,372)"/>
<path d="M0 0 C2.75 -0.375 2.75 -0.375 6 0 C8.375 3 8.375 3 10 6 C6.13304322 6 3.4911548 4.58090029 0 3 C0 2.01 0 1.02 0 0 Z " fill="#B3A173" transform="translate(314,55)"/>
<path d="M0 0 C2.31 0 4.62 0 7 0 C6.46930939 3.82097239 5.50298434 6.06171403 3 9 C2 6 1 3 0 0 Z " fill="#ECE4CF" transform="translate(256,372)"/>
<path d="M0 0 C5.93002267 -0.37851209 10.47239641 0.89424625 16 3 C16 3.33 16 3.66 16 4 C10.63108121 3.50130596 5.30764827 2.97772468 0 2 C0 1.34 0 0.68 0 0 Z " fill="#B2A173" transform="translate(308,72)"/>
<path d="M0 0 C1.65 0.33 3.3 0.66 5 1 C4.67 2.65 4.34 4.3 4 6 C2.35 5.67 0.7 5.34 -1 5 C-0.67 3.35 -0.34 1.7 0 0 Z " fill="#E3CD99" transform="translate(401,67)"/>
<path d="M0 0 C1.32 0 2.64 0 4 0 C8 4.22222222 8 4.22222222 8 7 C5.25851328 6.62952882 3.41406801 6.31412056 1.1875 4.625 C0 3 0 3 0 0 Z " fill="#C8AF6D" transform="translate(318,36)"/>
<path d="M0 0 C3.70030952 2.46687301 3.95803768 3.75199978 5 8 C5.07522969 10.33212027 5.09325876 12.6685311 5 15 C4.34 15 3.68 15 3 15 C2.01 10.05 1.02 5.1 0 0 Z " fill="#B6A472" transform="translate(382,133)"/>
<path d="M0 0 C2.96527758 2.4453385 3.55582214 4.44602347 4.1875 8.1875 C4.34605469 9.08855469 4.50460937 9.98960937 4.66796875 10.91796875 C4.83232422 11.94857422 4.83232422 11.94857422 5 13 C4.01 12.67 3.02 12.34 2 12 C0.65743047 7.68964518 0 4.52218352 0 0 Z " fill="#BDA770" transform="translate(432,154)"/>
<path d="M0 0 C4.41309542 3.15221101 7.00793014 6.55463907 10 11 C7 11 7 11 5 10 C3.98133771 8.34467377 2.98189187 6.67739862 2 5 C1.34 4.34 0.68 3.68 0 3 C0 2.01 0 1.02 0 0 Z " fill="#C0A970" transform="translate(381,98)"/>
<path d="M0 0 C2.97 0.495 2.97 0.495 6 1 C5.67 1.66 5.34 2.32 5 3 C7.64 3.33 10.28 3.66 13 4 C13 4.33 13 4.66 13 5 C3.58997722 6.51708428 3.58997722 6.51708428 -1 4 C-0.67 2.68 -0.34 1.36 0 0 Z " fill="#E0DEDE" transform="translate(385,76)"/>
<path d="M0 0 C0.33 0 0.66 0 1 0 C1.66 3.96 2.32 7.92 3 12 C3.99 12.33 4.98 12.66 6 13 C4.35 13.33 2.7 13.66 1 14 C-1.48063781 4.58997722 -1.48063781 4.58997722 0 0 Z " fill="#DCD4D5" transform="translate(375,59)"/>
<path d="M0 0 C0.66 0.33 1.32 0.66 2 1 C-1.3 4.3 -4.6 7.6 -8 11 C-8.33 10.34 -8.66 9.68 -9 9 C-6.21000549 5.51250686 -3.74764169 2.49842779 0 0 Z " fill="#C7AE6D" transform="translate(343,92)"/>
<path d="M0 0 C1.98 0.495 1.98 0.495 4 1 C4 2.98 4 4.96 4 7 C3.01 7.495 3.01 7.495 2 8 C2 7.34 2 6.68 2 6 C1.01 5.34 0.02 4.68 -1 4 C-0.67 2.68 -0.34 1.36 0 0 Z " fill="#E5CFAD" transform="translate(394,67)"/>
<path d="M0 0 C1.32 0.33 2.64 0.66 4 1 C4.33 2.98 4.66 4.96 5 7 C4.01 7.33 3.02 7.66 2 8 C0.74335022 5.09399739 0 3.20395416 0 0 Z " fill="#D8BE7C" transform="translate(101,373)"/>
<path d="M0 0 C1.65 0 3.3 0 5 0 C5 1.65 5 3.3 5 5 C3.35 5 1.7 5 0 5 C0 3.35 0 1.7 0 0 Z " fill="#D9BA69" transform="translate(409,66)"/>
<path d="M0 0 C0.33 0.99 0.66 1.98 1 3 C-1.55068845 5.35448165 -2.71017358 5.98327924 -6.25 6.1875 C-7.1575 6.125625 -8.065 6.06375 -9 6 C-9 5.34 -9 4.68 -9 4 C-7.88625 3.71125 -6.7725 3.4225 -5.625 3.125 C-1.99708908 2.30758671 -1.99708908 2.30758671 0 0 Z " fill="#8E918F" transform="translate(124,384)"/>
<path d="M0 0 C0.66 0 1.32 0 2 0 C4.1519437 3.22791555 4.20086443 4.28400809 4 8 C2.68 7.34 1.36 6.68 0 6 C0 4.02 0 2.04 0 0 Z " fill="#C7AE6D" transform="translate(416,139)"/>
<path d="M0 0 C1.98 0.66 3.96 1.32 6 2 C6 4.31 6 6.62 6 9 C3.43004926 7.71502463 3.09565537 6.50087627 1.875 3.9375 C1.52179688 3.20402344 1.16859375 2.47054687 0.8046875 1.71484375 C0.53914063 1.14894531 0.27359375 0.58304688 0 0 Z " fill="#BCA770" transform="translate(397,133)"/>
<path d="M0 0 C1.2065625 0.0309375 1.2065625 0.0309375 2.4375 0.0625 C2.1075 1.0525 1.7775 2.0425 1.4375 3.0625 C-2.125 4.25 -2.125 4.25 -5.5625 5.0625 C-3.15007962 0.07683121 -3.15007962 0.07683121 0 0 Z " fill="#BEA870" transform="translate(335.5625,90.9375)"/>
<path d="M0 0 C-5.97802937 2.20927172 -10.73960391 1.93213141 -17 1 C-17 0.67 -17 0.34 -17 0 C-14.72979256 -0.19493195 -12.45879711 -0.38070418 -10.1875 -0.5625 C-8.92292969 -0.66691406 -7.65835937 -0.77132812 -6.35546875 -0.87890625 C-3 -1 -3 -1 0 0 Z " fill="#DFAFB0" transform="translate(409,82)"/>
<path d="M0 0 C2.64 0 5.28 0 8 0 C8.33 0.66 8.66 1.32 9 2 C2.25 3.125 2.25 3.125 0 2 C0 1.34 0 0.68 0 0 Z " fill="#B0A074" transform="translate(317,79)"/>
<path d="M0 0 C2.76276177 0.52268466 5.3260876 1.10869587 8 2 C5.69 2.66 3.38 3.32 1 4 C1 5.98 1 7.96 1 10 C0.67 10 0.34 10 0 10 C0 6.7 0 3.4 0 0 Z " fill="#E9D4AE" transform="translate(231,464)"/>
<path d="M0 0 C1.85776765 3.13498292 2.20140476 5.37471432 2 9 C1.01 8.67 0.02 8.34 -1 8 C-1.33 6.35 -1.66 4.7 -2 3 C-1.34 3 -0.68 3 0 3 C0 2.01 0 1.02 0 0 Z " fill="#B5A373" transform="translate(390,121)"/>
<path d="M0 0 C0.33 0 0.66 0 1 0 C1.36625971 4.51720311 1.36625971 4.51720311 -0.375 6.8125 C-2 8 -2 8 -4 8 C-2.25 2.25 -2.25 2.25 0 0 Z " fill="#C2AB6F" transform="translate(366,118)"/>
<path d="M0 0 C2.31 0.33 4.62 0.66 7 1 C7.33 1.99 7.66 2.98 8 4 C2.25 3.125 2.25 3.125 0 2 C0 1.34 0 0.68 0 0 Z " fill="#CBB16C" transform="translate(308,39)"/>
<path d="M0 0 C2.475 0.495 2.475 0.495 5 1 C5.33 1.99 5.66 2.98 6 4 C5.34 4 4.68 4 4 4 C4 4.66 4 5.32 4 6 C2.68 5.34 1.36 4.68 0 4 C0.66 4 1.32 4 2 4 C1.34 2.68 0.68 1.36 0 0 Z " fill="#A79A77" transform="translate(296,20)"/>
<path d="M0 0 C1.39195915 4.17587745 -0.17676781 6.13474776 -2 10 C-3.0625 8.1875 -3.0625 8.1875 -4 6 C-3.0022242 3.00667261 -2.2477975 2.05233685 0 0 Z " fill="#DCCDA8" transform="translate(230,475)"/>
<path d="M0 0 C0.66 0 1.32 0 2 0 C1.25 6.75 1.25 6.75 -1 9 C-2.0326802 6.21176345 -2.04509293 5.1322726 -1.0625 2.25 C-0.711875 1.5075 -0.36125 0.765 0 0 Z " fill="#CBB47A" transform="translate(263,372)"/>
<path d="M0 0 C3.35620271 1.38877354 5.07298728 2.91677965 7 6 C7 6.66 7 7.32 7 8 C3.28631113 6.76210371 2.22645819 5.14775123 0 2 C0 1.34 0 0.68 0 0 Z " fill="#B4A273" transform="translate(426,140)"/>
<path d="M0 0 C0.99 0 1.98 0 3 0 C2.67 2.31 2.34 4.62 2 7 C1.34 6.01 0.68 5.02 0 4 C-0.99 4.495 -0.99 4.495 -2 5 C-1.34 3.35 -0.68 1.7 0 0 Z " fill="#979184" transform="translate(121,255)"/>
<path d="M0 0 C3.41158256 1.13719419 4.11854601 2.04342944 6 5 C6 5.66 6 6.32 6 7 C5.34 7 4.68 7 4 7 C2.2856382 5.04072937 0.61594832 3.04119788 -1 1 C-0.67 0.67 -0.34 0.34 0 0 Z " fill="#B1A074" transform="translate(348,62)"/>
<path d="M0 0 C1.32 0 2.64 0 4 0 C3.67 1.65 3.34 3.3 3 5 C2.01 4.67 1.02 4.34 0 4 C0 2.68 0 1.36 0 0 Z " fill="#DDBD7D" transform="translate(384,52)"/>
<path d="M0 0 C0.33 0 0.66 0 1 0 C1 1.65 1 3.3 1 5 C0.67 5 0.34 5 0 5 C0 3.35 0 1.7 0 0 Z " fill="#E4E1E2" transform="translate(373,59)"/>
<path d="M0 0 C0.33 0 0.66 0 1 0 C1 1.65 1 3.3 1 5 C0.67 5 0.34 5 0 5 C0 3.35 0 1.7 0 0 Z " fill="#E6DCDD" transform="translate(372,54)"/>
<path d="M0 0 C0.33 0 0.66 0 1 0 C1 1.65 1 3.3 1 5 C0.67 5 0.34 5 0 5 C0 3.35 0 1.7 0 0 Z " fill="#E3D8D8" transform="translate(373,49)"/>
<path d="M0 0 C3 1 3 1 3 1 Z " fill="#E3E2E2" transform="translate(398,79)"/>
<path d="M0 0 C3 1 3 1 3 1 Z " fill="#E1D3D3" transform="translate(391,76)"/>
<path d="M0 0 C2 1 2 1 2 1 Z " fill="#E4E5E5" transform="translate(409,80)"/>
<path d="M0 0 C2 1 2 1 2 1 Z " fill="#E3E4E4" transform="translate(401,78)"/>
<path d="" fill="#E5E6E7" transform="translate(0,0)"/>
<path d="M0 0 C2 1 2 1 2 1 Z " fill="#E6E7E8" transform="translate(394,75)"/>
<path d="" fill="#E0B4B4" transform="translate(0,0)"/>
<path d="" fill="#E2E2E3" transform="translate(0,0)"/>
<path d="" fill="#E4E5E6" transform="translate(0,0)"/>
<path d="" fill="#DFDFE0" transform="translate(0,0)"/>
<path d="" fill="#E2E3E3" transform="translate(0,0)"/>
<path d="" fill="#E3E4E5" transform="translate(0,0)"/>
<path d="" fill="#DFE0E0" transform="translate(0,0)"/>
<path d="" fill="#E0E1E1" transform="translate(0,0)"/>
<path d="" fill="#DDDEDF" transform="translate(0,0)"/>
<path d="" fill="#DDDEDF" transform="translate(0,0)"/>
<path d="" fill="#E0E1E2" transform="translate(0,0)"/>
</svg>
